<svg width="145" height="145" viewBox="0 0 145 145" fill="none" xmlns="http://www.w3.org/2000/svg">
<circle cx="72.5" cy="72.5" r="72.5" fill="#FF602A"/>
<path d="M43.4492 49.1367V55.6406H45.2891C46.875 55.6406 48.0898 55.3555 48.9336 54.7852C49.7773 54.2148 50.1992 53.3828 50.1992 52.2891C50.1992 51.2656 49.8828 50.4844 49.25 49.9453C48.6172 49.4062 47.4062 49.1367 45.6172 49.1367H43.4492ZM43.4492 57.1641V64.5H46.6016C47.9844 64.4844 49.0547 64.1836 49.8125 63.5977C50.5781 63.0117 50.9609 62.1797 50.9609 61.1016C50.9609 59.9297 50.5781 58.9805 49.8125 58.2539C49.0547 57.5273 47.8125 57.1641 46.0859 57.1641H43.4492ZM46.7188 47.6367C48.4297 47.6367 49.7656 48.0312 50.7266 48.8203C51.6875 49.6016 52.168 50.7305 52.168 52.207C52.168 53.3711 51.8125 54.2773 51.1016 54.9258C50.3984 55.5742 49.5273 55.9883 48.4883 56.168V56.2148C49.7305 56.3477 50.7969 56.8242 51.6875 57.6445C52.5781 58.457 53.0234 59.6328 53.0234 61.1719C53.0234 62.6484 52.4727 63.8242 51.3711 64.6992C50.2773 65.5664 48.707 66 46.6602 66H41.457V47.6367H46.7188ZM57.7461 53.3438C57.8008 53.5469 57.8398 53.8203 57.8633 54.1641C57.8945 54.5 57.9102 54.9414 57.9102 55.4883C58.5117 54.7695 59.2148 54.1992 60.0195 53.7773C60.832 53.3555 61.6758 53.1445 62.5508 53.1445C62.6523 53.1445 62.7578 53.1523 62.8672 53.168C62.9844 53.1836 63.0703 53.1992 63.125 53.2148L62.7266 55.1484C62.4922 55.0859 62.1953 55.0547 61.8359 55.0547C60.7969 55.0547 59.9336 55.2891 59.2461 55.7578C58.5586 56.2266 58.1172 56.6875 57.9219 57.1406V66H56.0703V55.0898C56.0547 54.082 56.0312 53.5 56 53.3438H57.7461ZM71.5273 59.2969C69.7695 59.3203 68.3516 59.6172 67.2734 60.1875C66.2031 60.7578 65.668 61.5781 65.668 62.6484C65.668 63.3125 65.8477 63.8008 66.207 64.1133C66.5742 64.4258 67.0703 64.582 67.6953 64.582C68.4766 64.582 69.2344 64.4062 69.9688 64.0547C70.7031 63.7031 71.2227 63.3789 71.5273 63.082V59.2969ZM64.2852 54.8906C64.6836 54.4766 65.332 54.082 66.2305 53.707C67.1289 53.332 68.1133 53.1445 69.1836 53.1445C70.457 53.1445 71.4727 53.4688 72.2305 54.1172C72.9961 54.7656 73.3789 55.668 73.3789 56.8242V62.4609C73.3789 63.4219 73.457 64.0469 73.6133 64.3359C73.7695 64.6172 74.0469 64.7578 74.4453 64.7578C74.7109 64.7578 74.9805 64.7305 75.2539 64.6758L75.5469 65.5312C75.3359 65.7344 75.0352 65.8984 74.6445 66.0234C74.2617 66.1484 73.8828 66.2109 73.5078 66.2109C73.0781 66.2109 72.6875 66.0508 72.3359 65.7305C71.9922 65.4023 71.7812 64.8398 71.7031 64.043H71.6328C70.9844 64.7617 70.2734 65.3047 69.5 65.6719C68.7344 66.0312 67.9141 66.2109 67.0391 66.2109C65.9922 66.2109 65.1602 65.9375 64.543 65.3906C63.9336 64.8359 63.6289 64.0391 63.6289 63C63.6289 61.8906 63.9805 60.9844 64.6836 60.2812C65.3867 59.5781 66.332 59.0664 67.5195 58.7461C68.707 58.4258 70.043 58.2656 71.5273 58.2656V57.2812C71.5273 56.2422 71.3047 55.5352 70.8594 55.1602C70.4219 54.7852 69.8477 54.5977 69.1367 54.5977C68.2383 54.5977 67.4453 54.7852 66.7578 55.1602C66.0703 55.5273 65.5703 55.8555 65.2578 56.1445L64.2852 54.8906ZM78.0547 54.9727C78.0547 54.4648 78.0195 53.9219 77.9492 53.3438H79.6719C79.7422 53.6875 79.7891 54.0938 79.8125 54.5625C80.3672 54.1562 81 53.8203 81.7109 53.5547C82.4297 53.2812 83.1914 53.1445 83.9961 53.1445C85.3164 53.1445 86.3242 53.4922 87.0195 54.1875C87.7227 54.8828 88.0742 55.8711 88.0742 57.1523V66H86.2227V57.457C86.2227 56.5977 86.0312 55.918 85.6484 55.418C85.2734 54.9102 84.6719 54.6562 83.8438 54.6562C83.1797 54.6562 82.4922 54.7656 81.7812 54.9844C81.0703 55.2031 80.4453 55.4844 79.9062 55.8281V66H78.0547V54.9727ZM96.5 64.582C97.6328 64.582 98.8633 64.1641 100.191 63.3281V55.1602C99.3008 54.8945 98.3281 54.7617 97.2734 54.7617C95.8047 54.7617 94.7461 55.2656 94.0977 56.2734C93.457 57.2734 93.1367 58.4062 93.1367 59.6719C93.1367 61.0234 93.457 62.1797 94.0977 63.1406C94.7461 64.1016 95.5469 64.582 96.5 64.582ZM96.9453 53.1445C98.0312 53.1445 99.1133 53.3594 100.191 53.7891V47.6367H102.043V62.0039C102.043 63.043 102.082 63.8242 102.16 64.3477C102.238 64.8633 102.402 65.4141 102.652 66H101.07C100.711 65.5312 100.473 64.9961 100.355 64.3945H100.297C99.6484 64.9727 98.9766 65.4219 98.2812 65.7422C97.5859 66.0547 96.8672 66.2109 96.125 66.2109C94.7578 66.2109 93.5938 65.6445 92.6328 64.5117C91.6719 63.3711 91.1914 61.7969 91.1914 59.7891C91.1914 57.8906 91.7148 56.3086 92.7617 55.043C93.8164 53.7773 95.2109 53.1445 96.9453 53.1445ZM60.1367 99H49.8711V80.6367H51.8633V97.3828H60.1367V99ZM67.8594 97.7227C68.5078 97.7227 69.0742 97.5703 69.5586 97.2656C70.043 96.9609 70.5234 96.4102 71 95.6133C71.4844 94.8164 71.7266 93.7344 71.7266 92.3672C71.7266 91.1719 71.3945 90.0859 70.7305 89.1094C70.0742 88.125 69.1094 87.6328 67.8359 87.6328C66.5625 87.6328 65.5781 88.1016 64.8828 89.0391C64.1953 89.9766 63.8516 91.2031 63.8516 92.7188C63.8516 94.0156 64.0977 95.0234 64.5898 95.7422C65.0898 96.4609 65.5898 96.9727 66.0898 97.2773C66.5977 97.5742 67.1875 97.7227 67.8594 97.7227ZM67.9414 99.2109C65.957 99.2109 64.457 98.5977 63.4414 97.3711C62.4258 96.1445 61.918 94.5195 61.918 92.4961C61.918 90.6836 62.4609 89.1719 63.5469 87.9609C64.6328 86.75 66.0781 86.1445 67.8828 86.1445C69.7266 86.1445 71.1484 86.7734 72.1484 88.0312C73.1562 89.2891 73.6602 90.8555 73.6602 92.7305C73.6602 94.5117 73.1328 96.0391 72.0781 97.3125C71.0234 98.5781 69.6445 99.2109 67.9414 99.2109ZM81.7578 93.6914C82.2422 93.6914 82.6523 93.6133 82.9883 93.457C83.332 93.293 83.6133 93.0625 83.832 92.7656C84.0508 92.4688 84.207 92.1133 84.3008 91.6992C84.4023 91.2852 84.4531 90.8242 84.4531 90.3164C84.4531 89.9336 84.3984 89.5664 84.2891 89.2148C84.1797 88.8555 84.0117 88.543 83.7852 88.2773C83.5664 88.0117 83.2852 87.8008 82.9414 87.6445C82.5977 87.4805 82.1914 87.3984 81.7227 87.3984C81.1523 87.3984 80.6797 87.4922 80.3047 87.6797C79.9297 87.8594 79.6289 88.0977 79.4023 88.3945C79.1758 88.6914 79.0156 89.0273 78.9219 89.4023C78.8281 89.7773 78.7812 90.1562 78.7812 90.5391C78.7812 90.9297 78.8398 91.3125 78.957 91.6875C79.082 92.0625 79.2656 92.3984 79.5078 92.6953C79.7578 92.9922 80.0664 93.2344 80.4336 93.4219C80.8086 93.6016 81.25 93.6914 81.7578 93.6914ZM79.0273 98.4844C78.6758 98.8672 78.4023 99.25 78.207 99.6328C78.0195 100.016 77.9258 100.387 77.9258 100.746C77.9258 101.223 78.0273 101.613 78.2305 101.918C78.4336 102.23 78.6953 102.477 79.0156 102.656C79.3359 102.836 79.6953 102.961 80.0938 103.031C80.4922 103.102 80.8906 103.137 81.2891 103.137C81.5078 103.137 81.7695 103.121 82.0742 103.09C82.3867 103.066 82.707 103.023 83.0352 102.961C83.3711 102.898 83.6992 102.812 84.0195 102.703C84.3477 102.602 84.6406 102.473 84.8984 102.316C85.1562 102.16 85.3633 101.973 85.5195 101.754C85.6836 101.543 85.7656 101.297 85.7656 101.016C85.7656 100.742 85.6797 100.496 85.5078 100.277C85.3438 100.066 85.1211 99.8789 84.8398 99.7148C84.5664 99.5508 84.2383 99.4023 83.8555 99.2695C83.4805 99.1367 82.8359 98.9844 81.9219 98.8125C81.3125 98.7188 80.8359 98.6562 80.4922 98.625C80.1562 98.5859 79.8594 98.5586 79.6016 98.543C79.3438 98.5195 79.1523 98.5 79.0273 98.4844ZM87.3359 87.8789C87.0234 87.8711 86.7344 87.8867 86.4688 87.9258C86.2031 87.9648 85.9414 88.0234 85.6836 88.1016C85.8789 88.3984 86.043 88.7383 86.1758 89.1211C86.3164 89.4961 86.3867 89.9375 86.3867 90.4453C86.3867 91.2109 86.2539 91.875 85.9883 92.4375C85.7227 92.9922 85.3672 93.4531 84.9219 93.8203C84.4766 94.1797 83.9648 94.4492 83.3867 94.6289C82.8086 94.8008 82.207 94.8867 81.582 94.8867C81.0508 94.8867 80.5 94.8203 79.9297 94.6875C79.8047 94.7031 79.6445 94.7461 79.4492 94.8164C79.2539 94.8867 79.0625 94.9805 78.875 95.0977C78.6953 95.2148 78.5391 95.3516 78.4062 95.5078C78.2734 95.6562 78.207 95.8203 78.207 96C78.207 96.2031 78.3438 96.3633 78.6172 96.4805C78.8906 96.5977 79.25 96.6992 79.6953 96.7852C80.1406 96.8633 80.9297 96.9805 82.0625 97.1367C83.2578 97.332 84.1367 97.5117 84.6992 97.6758C85.2695 97.832 85.7773 98.043 86.2227 98.3086C86.668 98.5742 87.0273 98.8984 87.3008 99.2812C87.5742 99.6719 87.7109 100.148 87.7109 100.711C87.7109 101.25 87.6094 101.715 87.4062 102.105C87.2031 102.496 86.9297 102.828 86.5859 103.102C86.25 103.383 85.8594 103.609 85.4141 103.781C84.9688 103.961 84.5 104.102 84.0078 104.203C83.5156 104.305 83.0156 104.371 82.5078 104.402C82.0078 104.441 81.5312 104.461 81.0781 104.461C80.3594 104.461 79.6992 104.398 79.0977 104.273C78.5039 104.148 77.9922 103.953 77.5625 103.688C77.1328 103.43 76.7969 103.098 76.5547 102.691C76.3125 102.293 76.1914 101.816 76.1914 101.262C76.1914 100.965 76.2422 100.668 76.3438 100.371C76.4531 100.082 76.5977 99.8047 76.7773 99.5391C76.9648 99.2734 77.1758 99.0273 77.4102 98.8008C77.6523 98.5742 77.9062 98.3711 78.1719 98.1914C77.9609 98.0898 77.7539 97.9844 77.5508 97.875C77.3477 97.7578 77.1641 97.6289 77 97.4883C76.8438 97.3398 76.7148 97.1719 76.6133 96.9844C76.5117 96.7891 76.4609 96.5625 76.4609 96.3047C76.4609 96.0234 76.543 95.7656 76.707 95.5312C76.8789 95.2969 77.0859 95.0859 77.3281 94.8984C77.5781 94.7109 77.8398 94.5547 78.1133 94.4297C78.3867 94.3047 78.6289 94.2148 78.8398 94.1602C78.1836 93.7852 77.6875 93.3086 77.3516 92.7305C77.0156 92.1445 76.8477 91.4141 76.8477 90.5391C76.8477 89.8281 76.9883 89.1992 77.2695 88.6523C77.5586 88.0977 77.9336 87.6367 78.3945 87.2695C78.8555 86.9023 79.3828 86.625 79.9766 86.4375C80.5703 86.2422 81.1758 86.1445 81.793 86.1445C82.332 86.1445 82.8711 86.2188 83.4102 86.3672C83.9492 86.5156 84.4531 86.7383 84.9219 87.0352C85.5312 86.8008 86.1211 86.6367 86.6914 86.543C87.2695 86.4492 87.8164 86.4023 88.332 86.4023L88.1211 87.9023L87.3359 87.8789ZM95.6797 97.7227C96.3281 97.7227 96.8945 97.5703 97.3789 97.2656C97.8633 96.9609 98.3438 96.4102 98.8203 95.6133C99.3047 94.8164 99.5469 93.7344 99.5469 92.3672C99.5469 91.1719 99.2148 90.0859 98.5508 89.1094C97.8945 88.125 96.9297 87.6328 95.6562 87.6328C94.3828 87.6328 93.3984 88.1016 92.7031 89.0391C92.0156 89.9766 91.6719 91.2031 91.6719 92.7188C91.6719 94.0156 91.918 95.0234 92.4102 95.7422C92.9102 96.4609 93.4102 96.9727 93.9102 97.2773C94.418 97.5742 95.0078 97.7227 95.6797 97.7227ZM95.7617 99.2109C93.7773 99.2109 92.2773 98.5977 91.2617 97.3711C90.2461 96.1445 89.7383 94.5195 89.7383 92.4961C89.7383 90.6836 90.2812 89.1719 91.3672 87.9609C92.4531 86.75 93.8984 86.1445 95.7031 86.1445C97.5469 86.1445 98.9688 86.7734 99.9688 88.0312C100.977 89.2891 101.48 90.8555 101.48 92.7305C101.48 94.5117 100.953 96.0391 99.8984 97.3125C98.8438 98.5781 97.4648 99.2109 95.7617 99.2109Z" fill="white" fill-opacity="0.41"/>
</svg>
