<svg width="100" height="100" viewBox="0 0 100 100" fill="none" xmlns="http://www.w3.org/2000/svg">
<path d="M50 8.33325C27.0417 8.33325 8.33337 27.0416 8.33337 49.9999C8.33337 72.9583 27.0417 91.6666 50 91.6666C72.9584 91.6666 91.6667 72.9583 91.6667 49.9999C91.6667 27.0416 72.9584 8.33325 50 8.33325ZM64 59.5833C65.2084 60.7916 65.2084 62.7916 64 63.9999C63.375 64.6249 62.5834 64.9166 61.7917 64.9166C61 64.9166 60.2084 64.6249 59.5834 63.9999L50 54.4166L40.4167 63.9999C39.7917 64.6249 39 64.9166 38.2084 64.9166C37.4167 64.9166 36.625 64.6249 36 63.9999C34.7917 62.7916 34.7917 60.7916 36 59.5833L45.5834 49.9999L36 40.4166C34.7917 39.2083 34.7917 37.2083 36 35.9999C37.2084 34.7916 39.2084 34.7916 40.4167 35.9999L50 45.5832L59.5834 35.9999C60.7917 34.7916 62.7917 34.7916 64 35.9999C65.2084 37.2083 65.2084 39.2083 64 40.4166L54.4167 49.9999L64 59.5833Z" fill="#FC5A5A"/>
</svg>
