<svg width="15" height="10" viewBox="0 0 15 10" fill="none" xmlns="http://www.w3.org/2000/svg">
<path fill-rule="evenodd" clip-rule="evenodd" d="M13.403 0.772461H12.6234C12.1929 0.772461 11.8438 1.12148 11.8438 1.55202V8.30818C11.8438 8.73871 12.1929 9.08773 12.6234 9.08773H13.403C13.8335 9.08773 14.1825 8.73871 14.1825 8.30818V1.55202C14.1825 1.12148 13.8335 0.772461 13.403 0.772461ZM8.98522 2.59117H9.76477C10.1953 2.59117 10.5443 2.94019 10.5443 3.37073V8.30792C10.5443 8.73846 10.1953 9.08748 9.76477 9.08748H8.98522C8.55468 9.08748 8.20566 8.73846 8.20566 8.30792V3.37073C8.20566 2.94019 8.55468 2.59117 8.98522 2.59117ZM6.12735 4.41065H5.3478C4.91726 4.41065 4.56824 4.75967 4.56824 5.1902V8.30843C4.56824 8.73897 4.91726 9.08799 5.3478 9.08799H6.12735C6.55789 9.08799 6.90691 8.73897 6.90691 8.30843V5.1902C6.90691 4.75967 6.55789 4.41065 6.12735 4.41065ZM2.48917 5.96976H1.70961C1.27907 5.96976 0.930054 6.31878 0.930054 6.74932V8.30843C0.930054 8.73897 1.27907 9.08799 1.70961 9.08799H2.48917C2.9197 9.08799 3.26872 8.73897 3.26872 8.30843V6.74932C3.26872 6.31878 2.9197 5.96976 2.48917 5.96976Z" fill="black"/>
</svg>
