<svg width="32" height="32" viewBox="0 0 32 32" fill="none" xmlns="http://www.w3.org/2000/svg">
<g clip-path="url(#clip0_840_9082)">
<path d="M16.551 6.66647H27.999C28.3527 6.66647 28.6918 6.80694 28.9419 7.05699C29.1919 7.30704 29.3324 7.64618 29.3324 7.9998V26.6665C29.3324 27.0201 29.1919 27.3592 28.9419 27.6093C28.6918 27.8593 28.3527 27.9998 27.999 27.9998H3.99904C3.64542 27.9998 3.30628 27.8593 3.05623 27.6093C2.80619 27.3592 2.66571 27.0201 2.66571 26.6665V5.33314C2.66571 4.97951 2.80619 4.64037 3.05623 4.39033C3.30628 4.14028 3.64542 3.9998 3.99904 3.9998H13.8844L16.551 6.66647ZM10.6657 25.3331H26.6657V14.6665H10.6657V25.3331ZM7.99904 25.3331V13.3331C7.99904 12.9795 8.13952 12.6404 8.38957 12.3903C8.63962 12.1403 8.97876 11.9998 9.33238 11.9998H26.6657V9.33314H15.447L12.7804 6.66647H5.33238V25.3331H7.99904Z" fill="white"/>
</g>
<defs>
<clipPath id="clip0_840_9082">
<rect width="32" height="32" fill="white" transform="translate(-0.000976562 -0.000213623)"/>
</clipPath>
</defs>
</svg>
