<svg width="207" height="56" viewBox="0 0 207 56" fill="none" xmlns="http://www.w3.org/2000/svg">
<path d="M10.1083 10.8879H26.1328V14.8853H14.5264V21.4073H25.4665V25.4046H14.5264V35.7136H10.1083V10.8879ZM30.1378 10.8879H34.5559V35.7136H30.1378V10.8879ZM40.0021 10.8879H48.628C49.8202 10.8879 50.9656 11.0048 52.0643 11.2386C53.1864 11.449 54.1799 11.823 55.0448 12.3607C55.9097 12.8983 56.5993 13.623 57.1136 14.5347C57.6279 15.4463 57.885 16.6035 57.885 18.006C57.885 19.806 57.3824 21.3138 56.3773 22.5294C55.3955 23.7449 53.9812 24.4813 52.1345 24.7384L58.7266 35.7136H53.3968L47.6462 25.1943H44.4203V35.7136H40.0021V10.8879ZM47.8566 21.4073C48.4878 21.4073 49.1189 21.3839 49.7501 21.3372C50.3812 21.267 50.954 21.1268 51.4682 20.9164C52.0059 20.6826 52.4384 20.3437 52.7656 19.8995C53.0929 19.432 53.2565 18.7891 53.2565 17.971C53.2565 17.2463 53.1046 16.6619 52.8007 16.2177C52.4968 15.7736 52.0994 15.4463 51.6085 15.2359C51.1176 15.0022 50.5682 14.8502 49.9605 14.7801C49.3761 14.71 48.8033 14.6749 48.2423 14.6749H44.4203V21.4073H47.8566ZM74.256 16.2177C73.7885 15.5398 73.1574 15.0489 72.3626 14.745C71.5911 14.4178 70.773 14.2541 69.908 14.2541C69.3938 14.2541 68.8912 14.3126 68.4003 14.4295C67.9327 14.5463 67.5003 14.7334 67.1029 14.9905C66.7289 15.2476 66.425 15.5866 66.1912 16.0074C65.9575 16.4048 65.8406 16.884 65.8406 17.445C65.8406 18.2866 66.1328 18.9294 66.7172 19.3736C67.3016 19.8177 68.0263 20.2034 68.8912 20.5307C69.7561 20.858 70.7028 21.1735 71.7314 21.4774C72.76 21.7813 73.7067 22.2021 74.5716 22.7397C75.4366 23.2774 76.1612 23.9904 76.7456 24.8787C77.33 25.767 77.6222 26.9475 77.6222 28.4202C77.6222 29.7526 77.3768 30.9215 76.8859 31.9266C76.395 32.9084 75.7288 33.7266 74.8872 34.3812C74.069 35.0357 73.1106 35.5266 72.0119 35.8539C70.9132 36.1811 69.7561 36.3448 68.5405 36.3448C66.9977 36.3448 65.5133 36.0876 64.0873 35.5733C62.6614 35.0591 61.4341 34.1941 60.4056 32.9786L63.7367 29.7526C64.2744 30.5708 64.9756 31.2137 65.8406 31.6812C66.7289 32.1253 67.6639 32.3474 68.6457 32.3474C69.16 32.3474 69.6743 32.2773 70.1886 32.137C70.7028 31.9968 71.1704 31.7864 71.5911 31.5059C72.0119 31.2254 72.3509 30.8747 72.608 30.4539C72.8652 30.0098 72.9937 29.5072 72.9937 28.9462C72.9937 28.0345 72.7015 27.3332 72.1171 26.8423C71.5327 26.3514 70.808 25.9423 69.9431 25.615C69.0782 25.2644 68.1314 24.9371 67.1029 24.6332C66.0743 24.3293 65.1276 23.9202 64.2627 23.406C63.3977 22.8683 62.6731 22.167 62.0887 21.3021C61.5043 20.4138 61.2121 19.2333 61.2121 17.7606C61.2121 16.4749 61.4692 15.3645 61.9835 14.4295C62.5211 13.4944 63.2107 12.723 64.0523 12.1152C64.9172 11.484 65.899 11.0165 66.9977 10.7126C68.0964 10.4087 69.2184 10.2568 70.3639 10.2568C71.673 10.2568 72.9353 10.4555 74.1509 10.8529C75.3898 11.2503 76.5002 11.9048 77.482 12.8165L74.256 16.2177ZM87.3077 14.8853H79.6987V10.8879H99.3348V14.8853H91.7258V35.7136H87.3077V14.8853ZM119.399 16.7087C118.488 15.7268 117.599 15.0723 116.734 14.745C115.893 14.4178 115.04 14.2541 114.175 14.2541C112.889 14.2541 111.72 14.4879 110.668 14.9554C109.64 15.3996 108.751 16.0307 108.003 16.8489C107.255 17.6437 106.671 18.5788 106.25 19.6541C105.853 20.7294 105.654 21.8865 105.654 23.1255C105.654 24.4579 105.853 25.6852 106.25 26.8072C106.671 27.9293 107.255 28.8994 108.003 29.7176C108.751 30.5358 109.64 31.1786 110.668 31.6461C111.72 32.1137 112.889 32.3474 114.175 32.3474C115.18 32.3474 116.15 32.1137 117.085 31.6461C118.044 31.1552 118.932 30.3838 119.75 29.3319L123.397 31.9266C122.275 33.4695 120.907 34.5915 119.294 35.2928C117.681 35.9941 115.963 36.3448 114.14 36.3448C112.223 36.3448 110.458 36.0409 108.845 35.4331C107.255 34.8019 105.876 33.9253 104.707 32.8033C103.562 31.6578 102.662 30.2903 102.007 28.7007C101.353 27.1111 101.026 25.3462 101.026 23.406C101.026 21.419 101.353 19.619 102.007 18.006C102.662 16.3697 103.562 14.9788 104.707 13.8334C105.876 12.6879 107.255 11.8113 108.845 11.2035C110.458 10.5724 112.223 10.2568 114.14 10.2568C115.823 10.2568 117.377 10.5607 118.803 11.1685C120.253 11.7529 121.597 12.7581 122.836 14.184L119.399 16.7087ZM126.362 10.8879H130.78V31.7163H141.335V35.7136H126.362V10.8879ZM144.44 10.8879H148.858V35.7136H144.44V10.8879ZM171.345 16.7087C170.434 15.7268 169.546 15.0723 168.681 14.745C167.839 14.4178 166.986 14.2541 166.121 14.2541C164.835 14.2541 163.666 14.4879 162.614 14.9554C161.586 15.3996 160.698 16.0307 159.95 16.8489C159.201 17.6437 158.617 18.5788 158.196 19.6541C157.799 20.7294 157.6 21.8865 157.6 23.1255C157.6 24.4579 157.799 25.6852 158.196 26.8072C158.617 27.9293 159.201 28.8994 159.95 29.7176C160.698 30.5358 161.586 31.1786 162.614 31.6461C163.666 32.1137 164.835 32.3474 166.121 32.3474C167.126 32.3474 168.096 32.1137 169.031 31.6461C169.99 31.1552 170.878 30.3838 171.696 29.3319L175.343 31.9266C174.221 33.4695 172.853 34.5915 171.24 35.2928C169.627 35.9941 167.909 36.3448 166.086 36.3448C164.169 36.3448 162.404 36.0409 160.791 35.4331C159.201 34.8019 157.822 33.9253 156.653 32.8033C155.508 31.6578 154.608 30.2903 153.954 28.7007C153.299 27.1111 152.972 25.3462 152.972 23.406C152.972 21.419 153.299 19.619 153.954 18.006C154.608 16.3697 155.508 14.9788 156.653 13.8334C157.822 12.6879 159.201 11.8113 160.791 11.2035C162.404 10.5724 164.169 10.2568 166.086 10.2568C167.769 10.2568 169.323 10.5607 170.749 11.1685C172.199 11.7529 173.543 12.7581 174.782 14.184L171.345 16.7087ZM178.308 10.8879H182.726V21.4073H182.937L193.211 10.8879H199.172L187.565 22.354L199.943 35.7136H193.737L182.972 23.5112H182.726V35.7136H178.308V10.8879Z" fill="white"/>
<path d="M50.639 50.5732C50.4586 50.8437 50.2382 51.0992 49.9777 51.3396C49.7273 51.5801 49.4317 51.7904 49.0911 51.9708C48.7605 52.1511 48.3898 52.2914 47.9791 52.3916C47.5783 52.5018 47.1375 52.5569 46.6566 52.5569C45.8552 52.5569 45.1138 52.4166 44.4325 52.1361C43.7513 51.8556 43.1652 51.4699 42.6743 50.979C42.1834 50.478 41.7977 49.8869 41.5172 49.2057C41.2467 48.5244 41.1114 47.7781 41.1114 46.9666C41.1114 46.1551 41.2517 45.4087 41.5322 44.7275C41.8127 44.0462 42.1984 43.4601 42.6893 42.9692C43.1903 42.4683 43.7763 42.0776 44.4476 41.7971C45.1288 41.5166 45.8652 41.3763 46.6566 41.3763C47.0473 41.3763 47.428 41.4164 47.7987 41.4965C48.1794 41.5767 48.5351 41.6919 48.8657 41.8421C49.1963 41.9824 49.4969 42.1577 49.7674 42.3681C50.0378 42.5685 50.2633 42.7989 50.4436 43.0594L49.5419 43.7206C49.4317 43.5503 49.2815 43.38 49.0911 43.2097C48.9108 43.0394 48.6954 42.8891 48.4449 42.7588C48.1945 42.6286 47.919 42.5234 47.6184 42.4433C47.3279 42.3631 47.0123 42.323 46.6717 42.323C45.9804 42.323 45.3592 42.4483 44.8082 42.6987C44.2672 42.9492 43.8064 43.2898 43.4257 43.7206C43.045 44.1414 42.7545 44.6323 42.5541 45.1933C42.3537 45.7543 42.2535 46.3454 42.2535 46.9666C42.2535 47.5877 42.3537 48.1788 42.5541 48.7398C42.7645 49.3009 43.06 49.7968 43.4407 50.2276C43.8214 50.6483 44.2823 50.984 44.8233 51.2344C45.3743 51.4849 45.9904 51.6101 46.6717 51.6101C47.2828 51.6101 47.8638 51.4849 48.4149 51.2344C48.9659 50.984 49.4267 50.5832 49.7974 50.0322L50.639 50.5732ZM53.5201 46.4106C53.7105 45.9998 54.0261 45.6742 54.4669 45.4338C54.9077 45.1933 55.3786 45.0731 55.8795 45.0731C56.7711 45.0731 57.4374 45.3386 57.8782 45.8696C58.329 46.4005 58.5544 47.1018 58.5544 47.9734V52.2864H57.5325V48.3942C57.5325 48.0235 57.5025 47.6879 57.4424 47.3873C57.3823 47.0868 57.2771 46.8313 57.1268 46.6209C56.9865 46.4005 56.7912 46.2302 56.5407 46.11C56.3003 45.9898 55.9947 45.9297 55.624 45.9297C55.3535 45.9297 55.088 45.9848 54.8276 46.095C54.5771 46.2052 54.3517 46.3755 54.1513 46.6059C53.9509 46.8263 53.7906 47.1118 53.6704 47.4625C53.5502 47.8031 53.4901 48.2089 53.4901 48.6797V52.2864H52.4682V40.9255H53.4901V46.4106H53.5201ZM66.5643 48.2289C66.5342 47.5677 66.3188 47.0217 65.9181 46.5909C65.5274 46.1501 64.9663 45.9297 64.235 45.9297C63.8943 45.9297 63.5788 45.9948 63.2882 46.125C62.9977 46.2452 62.7422 46.4156 62.5218 46.636C62.3014 46.8464 62.1261 47.0918 61.9959 47.3723C61.8656 47.6428 61.7905 47.9283 61.7704 48.2289H66.5643ZM67.6012 48.5595C67.6012 48.6296 67.6012 48.7048 67.6012 48.7849C67.6012 48.8651 67.5962 48.9502 67.5861 49.0404H61.7554C61.7654 49.391 61.8356 49.7216 61.9658 50.0322C62.096 50.3428 62.2764 50.6133 62.5068 50.8437C62.7372 51.0741 63.0077 51.2595 63.3183 51.3997C63.6289 51.53 63.9645 51.5951 64.3251 51.5951C64.8561 51.5951 65.312 51.4749 65.6927 51.2344C66.0834 50.984 66.3789 50.6984 66.5793 50.3778L67.3457 50.979C66.9249 51.5099 66.4591 51.8906 65.9481 52.1211C65.4472 52.3515 64.9062 52.4667 64.3251 52.4667C63.8042 52.4667 63.3183 52.3765 62.8675 52.1962C62.4266 52.0058 62.0459 51.7454 61.7254 51.4148C61.4048 51.0841 61.1493 50.6934 60.9589 50.2426C60.7786 49.7918 60.6885 49.3009 60.6885 48.7699C60.6885 48.2389 60.7786 47.748 60.9589 47.2972C61.1393 46.8464 61.3897 46.4556 61.7103 46.125C62.0309 45.7944 62.4066 45.5389 62.8374 45.3586C63.2682 45.1683 63.7341 45.0731 64.235 45.0731C64.786 45.0731 65.2719 45.1683 65.6927 45.3586C66.1134 45.5389 66.4641 45.7894 66.7446 46.11C67.0251 46.4206 67.2355 46.7862 67.3758 47.207C67.526 47.6278 67.6012 48.0786 67.6012 48.5595ZM74.1443 47.748C74.1443 47.1369 73.984 46.681 73.6634 46.3805C73.3428 46.0799 72.877 45.9297 72.2658 45.9297C71.8451 45.9297 71.4543 46.0048 71.0937 46.1551C70.733 46.3054 70.4275 46.5057 70.177 46.7562L69.6059 46.0799C69.8965 45.7894 70.2772 45.549 70.748 45.3586C71.2289 45.1683 71.7699 45.0731 72.371 45.0731C72.7517 45.0731 73.1074 45.1282 73.438 45.2384C73.7686 45.3386 74.0591 45.4939 74.3096 45.7043C74.5601 45.9146 74.7554 46.1801 74.8957 46.5007C75.0359 46.8213 75.1061 47.197 75.1061 47.6278V50.7085C75.1061 50.979 75.1161 51.2595 75.1361 51.55C75.1562 51.8405 75.1862 52.086 75.2263 52.2864H74.3096C74.2795 52.116 74.2545 51.9307 74.2345 51.7303C74.2144 51.53 74.2044 51.3346 74.2044 51.1443H74.1743C73.8538 51.6151 73.4881 51.9557 73.0773 52.1661C72.6766 52.3665 72.1907 52.4667 71.6196 52.4667C71.3492 52.4667 71.0686 52.4266 70.7781 52.3465C70.4976 52.2763 70.2371 52.1561 69.9967 51.9858C69.7662 51.8155 69.5709 51.5951 69.4106 51.3246C69.2603 51.0541 69.1852 50.7235 69.1852 50.3328C69.1852 49.7918 69.3204 49.366 69.5909 49.0554C69.8714 48.7348 70.2421 48.4994 70.703 48.3491C71.1638 48.1888 71.6898 48.0886 72.2809 48.0486C72.882 47.9985 73.5031 47.9734 74.1443 47.9734V47.748ZM73.8437 48.7699C73.423 48.7699 72.9972 48.7899 72.5664 48.83C72.1456 48.8601 71.7599 48.9302 71.4093 49.0404C71.0686 49.1406 70.7881 49.2908 70.5677 49.4912C70.3473 49.6916 70.2371 49.9571 70.2371 50.2877C70.2371 50.5381 70.2822 50.7485 70.3724 50.9188C70.4725 51.0892 70.6028 51.2294 70.7631 51.3396C70.9234 51.4398 71.0987 51.5149 71.289 51.565C71.4894 51.6051 71.6898 51.6251 71.8901 51.6251C72.2508 51.6251 72.5714 51.565 72.8519 51.4448C73.1324 51.3146 73.3679 51.1443 73.5582 50.9339C73.7486 50.7135 73.8938 50.463 73.994 50.1825C74.0942 49.902 74.1443 49.6064 74.1443 49.2959V48.7699H73.8437ZM78.7605 55.893H77.7386V45.2534H78.7605V46.4707H78.8056C79.0961 46.0098 79.4818 45.6642 79.9627 45.4338C80.4536 45.1933 80.9495 45.0731 81.4504 45.0731C82.0014 45.0731 82.4973 45.1683 82.9382 45.3586C83.389 45.549 83.7697 45.8094 84.0803 46.1401C84.4008 46.4707 84.6463 46.8614 84.8166 47.3122C84.9969 47.763 85.0871 48.2489 85.0871 48.7699C85.0871 49.2908 84.9969 49.7767 84.8166 50.2276C84.6463 50.6784 84.4008 51.0691 84.0803 51.3997C83.7697 51.7303 83.389 51.9908 82.9382 52.1812C82.4973 52.3715 82.0014 52.4667 81.4504 52.4667C80.9495 52.4667 80.4536 52.3515 79.9627 52.1211C79.4818 51.8806 79.0961 51.54 78.8056 51.0992H78.7605V55.893ZM84.0051 48.7699C84.0051 48.3792 83.945 48.0135 83.8248 47.6729C83.7046 47.3222 83.5292 47.0217 83.2988 46.7712C83.0784 46.5107 82.8029 46.3054 82.4723 46.1551C82.1417 46.0048 81.766 45.9297 81.3452 45.9297C80.9545 45.9297 80.5938 46.0048 80.2632 46.1551C79.9326 46.2953 79.6471 46.4957 79.4067 46.7562C79.1662 47.0066 78.9759 47.3072 78.8356 47.6578C78.7054 47.9985 78.6403 48.3692 78.6403 48.7699C78.6403 49.1706 78.7054 49.5463 78.8356 49.897C78.9759 50.2376 79.1662 50.5331 79.4067 50.7836C79.6471 51.0341 79.9326 51.2344 80.2632 51.3847C80.5938 51.525 80.9545 51.5951 81.3452 51.5951C81.766 51.5951 82.1417 51.525 82.4723 51.3847C82.8029 51.2344 83.0784 51.0341 83.2988 50.7836C83.5292 50.5231 83.7046 50.2226 83.8248 49.8819C83.945 49.5313 84.0051 49.1606 84.0051 48.7699ZM92.1766 52.2864H91.0946V41.6468H97.5114V42.6086H92.1766V46.3054H97.1358V47.2521H92.1766V52.2864ZM103.951 52.2864C103.931 52.096 103.916 51.8856 103.906 51.6552C103.896 51.4248 103.891 51.2344 103.891 51.0841H103.861C103.661 51.4949 103.335 51.8305 102.884 52.091C102.433 52.3415 101.958 52.4667 101.457 52.4667C100.565 52.4667 99.8938 52.2012 99.443 51.6702C99.0022 51.1392 98.7818 50.438 98.7818 49.5664V45.2534H99.8036V49.1456C99.8036 49.5163 99.8337 49.8519 99.8938 50.1524C99.9539 50.453 100.054 50.7135 100.194 50.9339C100.345 51.1443 100.54 51.3096 100.78 51.4298C101.031 51.55 101.341 51.6101 101.712 51.6101C101.983 51.6101 102.243 51.555 102.494 51.4448C102.754 51.3346 102.984 51.1693 103.185 50.9489C103.385 50.7185 103.546 50.4329 103.666 50.0923C103.786 49.7417 103.846 49.3309 103.846 48.8601V45.2534H104.868V50.7385C104.868 50.9289 104.873 51.1743 104.883 51.4749C104.893 51.7754 104.908 52.0459 104.928 52.2864H103.951ZM112.939 48.2289C112.909 47.5677 112.693 47.0217 112.292 46.5909C111.902 46.1501 111.341 45.9297 110.609 45.9297C110.269 45.9297 109.953 45.9948 109.663 46.125C109.372 46.2452 109.117 46.4156 108.896 46.636C108.676 46.8464 108.5 47.0918 108.37 47.3723C108.24 47.6428 108.165 47.9283 108.145 48.2289H112.939ZM113.976 48.5595C113.976 48.6296 113.976 48.7048 113.976 48.7849C113.976 48.8651 113.971 48.9502 113.96 49.0404H108.13C108.14 49.391 108.21 49.7216 108.34 50.0322C108.47 50.3428 108.651 50.6133 108.881 50.8437C109.112 51.0741 109.382 51.2595 109.693 51.3997C110.003 51.53 110.339 51.5951 110.699 51.5951C111.23 51.5951 111.686 51.4749 112.067 51.2344C112.458 50.984 112.753 50.6984 112.954 50.3778L113.72 50.979C113.299 51.5099 112.833 51.8906 112.322 52.1211C111.822 52.3515 111.281 52.4667 110.699 52.4667C110.179 52.4667 109.693 52.3765 109.242 52.1962C108.801 52.0058 108.42 51.7454 108.1 51.4148C107.779 51.0841 107.524 50.6934 107.333 50.2426C107.153 49.7918 107.063 49.3009 107.063 48.7699C107.063 48.2389 107.153 47.748 107.333 47.2972C107.514 46.8464 107.764 46.4556 108.085 46.125C108.405 45.7944 108.781 45.5389 109.212 45.3586C109.643 45.1683 110.108 45.0731 110.609 45.0731C111.16 45.0731 111.646 45.1683 112.067 45.3586C112.488 45.5389 112.838 45.7894 113.119 46.11C113.399 46.4206 113.61 46.7862 113.75 47.207C113.9 47.6278 113.976 48.0786 113.976 48.5595ZM117.225 52.2864H116.204V40.9255H117.225V52.2864ZM124.859 52.2864H123.777V41.6468H130.194V42.6086H124.859V46.3054H129.818V47.2521H124.859V52.2864ZM132.928 52.2864H131.906V45.2534H132.928V52.2864ZM133.138 42.5484C133.138 42.7588 133.063 42.9342 132.913 43.0744C132.763 43.2047 132.597 43.2698 132.417 43.2698C132.237 43.2698 132.071 43.2047 131.921 43.0744C131.771 42.9342 131.696 42.7588 131.696 42.5484C131.696 42.3381 131.771 42.1677 131.921 42.0375C132.071 41.8972 132.237 41.8271 132.417 41.8271C132.597 41.8271 132.763 41.8972 132.913 42.0375C133.063 42.1677 133.138 42.3381 133.138 42.5484ZM136.565 45.2534C136.585 45.4438 136.6 45.6542 136.61 45.8846C136.62 46.115 136.625 46.3054 136.625 46.4556H136.655C136.855 46.0449 137.181 45.7143 137.631 45.4638C138.082 45.2033 138.558 45.0731 139.059 45.0731C139.951 45.0731 140.617 45.3386 141.058 45.8696C141.509 46.4005 141.734 47.1018 141.734 47.9734V52.2864H140.712V48.3942C140.712 48.0235 140.682 47.6879 140.622 47.3873C140.562 47.0868 140.457 46.8313 140.306 46.6209C140.166 46.4005 139.971 46.2302 139.72 46.11C139.48 45.9898 139.174 45.9297 138.804 45.9297C138.533 45.9297 138.268 45.9848 138.007 46.095C137.757 46.2052 137.531 46.3755 137.331 46.6059C137.131 46.8263 136.97 47.1118 136.85 47.4625C136.73 47.8031 136.67 48.2089 136.67 48.6797V52.2864H135.648V46.8013C135.648 46.6109 135.643 46.3655 135.633 46.0649C135.623 45.7644 135.608 45.4939 135.588 45.2534H136.565ZM150.165 51.0992C149.865 51.55 149.474 51.8906 148.993 52.1211C148.512 52.3515 148.016 52.4667 147.505 52.4667C146.954 52.4667 146.454 52.3715 146.003 52.1812C145.562 51.9908 145.181 51.7303 144.861 51.3997C144.55 51.0691 144.305 50.6784 144.124 50.2276C143.954 49.7767 143.869 49.2908 143.869 48.7699C143.869 48.2489 143.954 47.763 144.124 47.3122C144.305 46.8614 144.55 46.4707 144.861 46.1401C145.181 45.8094 145.562 45.549 146.003 45.3586C146.454 45.1683 146.954 45.0731 147.505 45.0731C148.016 45.0731 148.512 45.1933 148.993 45.4338C149.474 45.6642 149.865 46.0098 150.165 46.4707H150.195V40.9255H151.217V52.2864H150.195V51.0992H150.165ZM144.951 48.7699C144.951 49.1606 145.011 49.5313 145.131 49.8819C145.251 50.2226 145.422 50.5231 145.642 50.7836C145.872 51.0341 146.153 51.2344 146.484 51.3847C146.814 51.525 147.19 51.5951 147.611 51.5951C148.001 51.5951 148.362 51.525 148.693 51.3847C149.023 51.2344 149.309 51.0341 149.549 50.7836C149.79 50.5331 149.975 50.2376 150.105 49.897C150.246 49.5463 150.316 49.1706 150.316 48.7699C150.316 48.3692 150.246 47.9985 150.105 47.6578C149.975 47.3072 149.79 47.0066 149.549 46.7562C149.309 46.4957 149.023 46.2953 148.693 46.1551C148.362 46.0048 148.001 45.9297 147.611 45.9297C147.19 45.9297 146.814 46.0048 146.484 46.1551C146.153 46.3054 145.872 46.5107 145.642 46.7712C145.422 47.0217 145.251 47.3222 145.131 47.6729C145.011 48.0135 144.951 48.3792 144.951 48.7699ZM159.313 48.2289C159.283 47.5677 159.068 47.0217 158.667 46.5909C158.276 46.1501 157.715 45.9297 156.984 45.9297C156.643 45.9297 156.327 45.9948 156.037 46.125C155.746 46.2452 155.491 46.4156 155.271 46.636C155.05 46.8464 154.875 47.0918 154.745 47.3723C154.614 47.6428 154.539 47.9283 154.519 48.2289H159.313ZM160.35 48.5595C160.35 48.6296 160.35 48.7048 160.35 48.7849C160.35 48.8651 160.345 48.9502 160.335 49.0404H154.504C154.514 49.391 154.584 49.7216 154.715 50.0322C154.845 50.3428 155.025 50.6133 155.256 50.8437C155.486 51.0741 155.756 51.2595 156.067 51.3997C156.378 51.53 156.713 51.5951 157.074 51.5951C157.605 51.5951 158.061 51.4749 158.441 51.2344C158.832 50.984 159.128 50.6984 159.328 50.3778L160.094 50.979C159.674 51.5099 159.208 51.8906 158.697 52.1211C158.196 52.3515 157.655 52.4667 157.074 52.4667C156.553 52.4667 156.067 52.3765 155.616 52.1962C155.175 52.0058 154.795 51.7454 154.474 51.4148C154.153 51.0841 153.898 50.6934 153.708 50.2426C153.527 49.7918 153.437 49.3009 153.437 48.7699C153.437 48.2389 153.527 47.748 153.708 47.2972C153.888 46.8464 154.138 46.4556 154.459 46.125C154.78 45.7944 155.155 45.5389 155.586 45.3586C156.017 45.1683 156.483 45.0731 156.984 45.0731C157.535 45.0731 158.021 45.1683 158.441 45.3586C158.862 45.5389 159.213 45.7894 159.493 46.11C159.774 46.4206 159.984 46.7862 160.124 47.207C160.275 47.6278 160.35 48.0786 160.35 48.5595ZM162.548 46.8013C162.548 46.6109 162.543 46.3655 162.533 46.0649C162.523 45.7644 162.508 45.4939 162.488 45.2534H163.465C163.485 45.4438 163.5 45.6542 163.51 45.8846C163.52 46.115 163.525 46.3054 163.525 46.4556H163.555C163.755 46.0449 164.056 45.7143 164.456 45.4638C164.857 45.2033 165.308 45.0731 165.809 45.0731C165.939 45.0731 166.054 45.0781 166.155 45.0881C166.265 45.0981 166.375 45.1182 166.485 45.1482L166.35 46.11C166.29 46.09 166.19 46.0699 166.049 46.0499C165.909 46.0299 165.769 46.0198 165.629 46.0198C165.358 46.0198 165.098 46.0699 164.847 46.1701C164.597 46.2703 164.376 46.4306 164.186 46.651C164.006 46.8614 163.855 47.1369 163.735 47.4775C163.625 47.8081 163.57 48.2089 163.57 48.6797V52.2864H162.548V46.8013Z" fill="#DBE9F5"/>
</svg>
