<svg width="32" height="32" viewBox="0 0 32 32" fill="none" xmlns="http://www.w3.org/2000/svg">
<path fill-rule="evenodd" clip-rule="evenodd" d="M21.3324 1.33313H10.6657C5.51104 1.33313 1.33237 5.51181 1.33237 10.6665V21.3331C1.33237 26.4878 5.51104 30.6665 10.6657 30.6665H21.3324C26.487 30.6665 30.6657 26.4878 30.6657 21.3331V10.6665C30.6657 5.51181 26.487 1.33313 21.3324 1.33313ZM3.99903 10.6665C3.99903 6.98457 6.9838 3.9998 10.6657 3.9998H21.3324C25.0143 3.9998 27.999 6.98457 27.999 10.6665V21.3331C27.999 25.015 25.0143 27.9998 21.3324 27.9998H10.6657C6.9838 27.9998 3.99903 25.015 3.99903 21.3331V10.6665Z" fill="white"/>
<path fill-rule="evenodd" clip-rule="evenodd" d="M13.8847 15.771L11.0562 12.9426C10.5355 12.4219 10.5355 11.5777 11.0562 11.057C11.5769 10.5363 12.4211 10.5363 12.9418 11.057L15.7703 13.8854L18.5987 11.057C19.1194 10.5363 19.9636 10.5363 20.4843 11.057C21.005 11.5777 21.005 12.4219 20.4843 12.9426L17.6559 15.771L20.4843 18.5995C21.005 19.1202 21.005 19.9644 20.4843 20.4851C19.9636 21.0058 19.1194 21.0058 18.5987 20.4851L15.7703 17.6567L12.9418 20.4851C12.4211 21.0058 11.5769 21.0058 11.0562 20.4851C10.5355 19.9644 10.5355 19.1202 11.0562 18.5995L13.8847 15.771Z" fill="white"/>
</svg>
