<svg width="32" height="32" viewBox="0 0 32 32" fill="none" xmlns="http://www.w3.org/2000/svg">
<path fill-rule="evenodd" clip-rule="evenodd" d="M7.99904 1.33313H20.7079C21.4993 1.33313 22.2498 1.68466 22.7565 2.29264L28.7143 9.44204C29.1137 9.92128 29.3324 10.5254 29.3324 11.1492V25.3331C29.3324 28.2787 26.9446 30.6665 23.999 30.6665H7.99904C5.05352 30.6665 2.66571 28.2787 2.66571 25.3331V6.66646C2.66571 3.72094 5.05352 1.33313 7.99904 1.33313ZM26.6657 25.3331V11.9998H22.6657C21.193 11.9998 19.999 10.8059 19.999 9.33313V3.9998H7.99904C6.52628 3.9998 5.33238 5.1937 5.33238 6.66646V25.3331C5.33238 26.8059 6.52628 27.9998 7.99904 27.9998H23.999C25.4718 27.9998 26.6657 26.8059 26.6657 25.3331ZM25.1523 9.33313L22.6657 6.3492V9.33313H25.1523ZM10.6657 18.6665C9.92933 18.6665 9.33238 18.0695 9.33238 17.3331C9.33238 16.5968 9.92933 15.9998 10.6657 15.9998H21.3324C22.0688 15.9998 22.6657 16.5968 22.6657 17.3331C22.6657 18.0695 22.0688 18.6665 21.3324 18.6665H10.6657ZM10.6657 23.9998C9.92933 23.9998 9.33238 23.4028 9.33238 22.6665C9.33238 21.9301 9.92933 21.3331 10.6657 21.3331H18.6657C19.4021 21.3331 19.999 21.9301 19.999 22.6665C19.999 23.4028 19.4021 23.9998 18.6657 23.9998H10.6657ZM10.6657 13.3331C9.92933 13.3331 9.33238 12.7362 9.33238 11.9998C9.33238 11.2634 9.92933 10.6665 10.6657 10.6665H14.6657C15.4021 10.6665 15.999 11.2634 15.999 11.9998C15.999 12.7362 15.4021 13.3331 14.6657 13.3331H10.6657Z" fill="white"/>
</svg>
