<svg width="32" height="32" viewBox="0 0 32 32" fill="none" xmlns="http://www.w3.org/2000/svg">
<path d="M11.5879 15.0377L14.616 18.0269L20.2894 11.1512C20.7581 10.5832 21.5985 10.5027 22.1664 10.9714C22.7344 11.44 22.8149 12.2804 22.3463 12.8484L15.7451 20.8484C15.2467 21.4525 14.3374 21.4989 13.78 20.9487L9.71449 16.9355C9.19043 16.4182 9.18496 15.574 9.70228 15.0499C10.2196 14.5258 11.0638 14.5204 11.5879 15.0377Z" fill="white"/>
<path fill-rule="evenodd" clip-rule="evenodd" d="M10.6657 1.33313H21.3323C26.487 1.33313 30.6657 5.51181 30.6657 10.6665V21.3331C30.6657 26.4878 26.487 30.6665 21.3323 30.6665H10.6657C5.51102 30.6665 1.33234 26.4878 1.33234 21.3331V10.6665C1.33234 5.51181 5.51102 1.33313 10.6657 1.33313ZM10.6657 3.9998C6.98378 3.9998 3.99901 6.98457 3.99901 10.6665V21.3331C3.99901 25.015 6.98378 27.9998 10.6657 27.9998H21.3323C25.0142 27.9998 27.999 25.015 27.999 21.3331V10.6665C27.999 6.98457 25.0142 3.9998 21.3323 3.9998H10.6657Z" fill="white"/>
</svg>
