<svg width="20" height="20" viewBox="0 0 20 20" fill="none" xmlns="http://www.w3.org/2000/svg">
<path fill-rule="evenodd" clip-rule="evenodd" d="M3.90244 3.9025C0.921436 6.8835 0.921436 11.7167 3.90244 14.6977C6.88344 17.6787 11.7166 17.6787 14.6976 14.6977C17.6786 11.7167 17.6786 6.8835 14.6976 3.9025C11.7166 0.921497 6.88344 0.921497 3.90244 3.9025ZM5.08095 5.08101C7.41108 2.75088 11.189 2.75088 13.5191 5.08101C15.8492 7.41114 15.8492 11.189 13.5191 13.5192C11.189 15.8493 7.41108 15.8493 5.08095 13.5192C2.75082 11.189 2.75082 7.41114 5.08095 5.08101Z" fill="#696974"/>
<path d="M18.412 16.9021L14.9707 13.4609C14.1851 12.6752 13.0066 13.8538 13.7922 14.6394L17.2335 18.0807C18.0191 18.8663 19.1976 17.6878 18.412 16.9021Z" fill="#696974"/>
</svg>
