<svg width="40" height="40" viewBox="0 0 40 40" fill="none" xmlns="http://www.w3.org/2000/svg">
<rect width="40" height="40" rx="4" fill="white"/>
<rect width="40" height="40" rx="4" stroke="#E2E2EA"/>
<path d="M10.6667 14.1666H29.3333C29.9777 14.1666 30.5 13.6443 30.5 12.9999C30.5 12.3556 29.9777 11.8333 29.3333 11.8333H10.6667C10.0223 11.8333 9.5 12.3556 9.5 12.9999C9.5 13.6443 10.0223 14.1666 10.6667 14.1666Z" fill="#696974"/>
<path d="M16.5 28.1666H23.5C24.1443 28.1666 24.6667 27.6443 24.6667 26.9999C24.6667 26.3556 24.1443 25.8333 23.5 25.8333H16.5C15.8557 25.8333 15.3333 26.3556 15.3333 26.9999C15.3333 27.6443 15.8557 28.1666 16.5 28.1666Z" fill="#696974"/>
<path d="M25.8333 21.1666H14.1667C13.5223 21.1666 13 20.6443 13 19.9999C13 19.3556 13.5223 18.8333 14.1667 18.8333H25.8333C26.4777 18.8333 27 19.3556 27 19.9999C27 20.6443 26.4777 21.1666 25.8333 21.1666Z" fill="#696974"/>
</svg>
