<svg width="32" height="32" viewBox="0 0 32 32" fill="none" xmlns="http://www.w3.org/2000/svg">
<path d="M27.4934 11.2667C26.0934 5.10671 20.7201 2.33337 16.0001 2.33337C16.0001 2.33337 16.0001 2.33337 15.9867 2.33337C11.2801 2.33337 5.8934 5.09337 4.4934 11.2534C2.9334 18.1334 7.14673 23.96 10.9601 27.6267C12.3734 28.9867 14.1867 29.6667 16.0001 29.6667C17.8134 29.6667 19.6267 28.9867 21.0267 27.6267C24.8401 23.96 29.0534 18.1467 27.4934 11.2667ZM16.0001 17.9467C13.6801 17.9467 11.8001 16.0667 11.8001 13.7467C11.8001 11.4267 13.6801 9.54671 16.0001 9.54671C18.3201 9.54671 20.2001 11.4267 20.2001 13.7467C20.2001 16.0667 18.3201 17.9467 16.0001 17.9467Z" fill="#A1B3C9"/>
</svg>
