<svg width="18" height="20" viewBox="0 0 18 20" fill="none" xmlns="http://www.w3.org/2000/svg">
<path fill-rule="evenodd" clip-rule="evenodd" d="M3.37762 7.89415V5.64483C3.37762 2.53867 5.89567 0.0206299 9.00183 0.0206299C12.108 0.0206299 14.626 2.53867 14.626 5.64483V7.89415H15.7507C16.9929 7.89415 18 8.9012 18 10.1435V16.8923C18.0006 18.1335 16.994 19.141 15.7518 19.1416L2.24932 19.1416C1.00741 19.1416 0.000503196 18.1351 0 16.8932V10.1444C0.000606796 8.90101 1.00815 7.89445 2.25041 7.89506L3.37762 7.89415ZM9.00183 2.26996C7.13642 2.26996 5.6242 3.78218 5.6242 5.64759V7.8969H12.3731V5.64485C12.3716 3.78206 10.8621 2.27205 8.99922 2.26996L9.00183 2.26996Z" fill="#9DB4CB"/>
</svg>
