<svg width="24" height="25" viewBox="0 0 24 25" fill="none" xmlns="http://www.w3.org/2000/svg">
<rect opacity="0.01" y="0.0206299" width="24" height="24" fill="#9DB4CB"/>
<path fill-rule="evenodd" clip-rule="evenodd" d="M11.4519 21.2498C6.10992 21.2498 2.81959 17.4903 2.81959 12.7159C2.79679 10.1835 3.80294 7.75039 5.60761 5.97376C7.41227 4.19712 9.86084 3.22917 12.3925 3.2916C17.2653 3.2916 20.9017 6.28463 20.9017 11.0095C20.9017 15.3133 18.6263 17.0204 16.3502 17.0204C15.3737 17.0715 14.4465 16.5882 13.9293 15.7584C13.102 16.5282 12.0167 16.9607 10.8867 16.9708C8.1654 16.9708 6.78346 15.0415 6.78346 12.7128C6.73716 11.2708 7.28604 9.87333 8.30125 8.8483C9.31646 7.82327 10.7086 7.26098 12.1509 7.29341C12.946 7.26848 13.7275 7.50301 14.3775 7.96154L14.4766 7.54115H16.8263L15.665 12.983C15.442 14.0715 15.6898 14.937 16.7535 14.937C18.0642 14.937 18.8315 13.8485 18.8315 10.9546C18.8315 7.09599 15.7889 5.28979 12.3755 5.28979C10.3909 5.21871 8.46674 5.97938 7.06725 7.38828C5.66775 8.79719 4.91999 10.7264 5.00437 12.7104C5.00437 16.6186 7.50269 19.1664 11.4604 19.1664C12.9713 19.178 14.4634 18.8304 15.8137 18.1522L16.6297 20.1559C14.9924 20.8572 13.2329 21.2289 11.4519 21.2498ZM11.2784 14.6451C11.9497 14.6711 12.6023 14.4206 13.0839 13.9522L13.8751 10.2911C13.4248 9.83862 12.8101 9.58852 12.1719 9.59816C11.4045 9.59105 10.6679 9.8996 10.1348 10.4515C9.60157 11.0034 9.31864 11.7502 9.35224 12.5169C9.34992 13.8044 9.9685 14.6451 11.2792 14.6451H11.2784Z" fill="#9DB4CB"/>
</svg>
