<svg width="43" height="41" viewBox="0 0 43 41" fill="none" xmlns="http://www.w3.org/2000/svg">
<g clip-path="url(#clip0_1138_84)">
<path fill-rule="evenodd" clip-rule="evenodd" d="M-2.14734 -3.14758H45.1481V44.1479H-2.14734V-3.14758Z" fill="white"/>
<path d="M39.3788 10.0358C40.1502 11.1867 40.8098 12.4087 41.3488 13.6851C41.3488 13.6853 41.3493 13.6846 41.3498 13.6848C41.9149 15.0015 42.3442 16.3724 42.6308 17.7763C42.9182 19.1889 43.0623 20.6269 43.0612 22.0685C43.06 22.7852 43.0228 23.5014 42.9495 24.2144C42.8751 24.9445 42.7685 25.6709 42.6298 26.3915L42.58 26.6521L36.1844 31.2843L35.1497 39.5121H24.1154L23.7142 39.7796C23.4053 40.0191 23.0577 40.2041 22.6864 40.3265H22.6839C22.3083 40.4502 21.9137 40.5095 21.5 40.5095C21.0778 40.5095 20.6837 40.4502 20.3083 40.3265H20.3056C19.9454 40.2082 19.6085 40.0303 19.2859 39.7901L18.8344 39.5121H7.90196L6.85082 31.2858L0.421781 26.6521L0.370009 26.3967C0.224422 25.6743 0.11583 24.9449 0.044656 24.2115C-0.025539 23.4993 -0.0608321 22.7841 -0.0610962 22.0685C-0.0610962 20.6159 0.0804792 19.1874 0.362893 17.7883C0.648122 16.3822 1.07409 15.0084 1.63437 13.6875C2.17306 12.408 2.83273 11.1828 3.6044 10.0287C4.37823 8.8737 5.26322 7.79723 6.24673 6.81465C7.22419 5.83774 8.2938 4.95761 9.44064 4.18655C10.595 3.41063 11.8206 2.74623 13.1007 2.20229C14.4493 1.62814 15.8199 1.19973 17.216 0.916088C18.6261 0.631023 20.0614 0.488566 21.5 0.490872C22.9484 0.490872 24.3799 0.633674 25.7922 0.920996C27.2011 1.20839 28.5772 1.63768 29.8996 2.20229C31.1749 2.74377 32.3954 3.40609 33.5445 4.18017C34.6869 4.95086 35.7528 5.82951 36.7372 6.81465C36.7381 6.81514 36.7367 6.81661 36.7372 6.8171C37.7178 7.80382 38.6023 8.88157 39.3788 10.0358Z" fill="white"/>
<path fill-rule="evenodd" clip-rule="evenodd" d="M40.7347 13.9465C39.6733 11.4376 38.1775 9.21804 36.2639 7.28825C34.3498 5.37441 32.1305 3.87867 29.6376 2.81722C27.0326 1.70768 24.3144 1.16077 21.5001 1.16077C18.6696 1.16077 15.9679 1.70768 13.3624 2.81722C10.8695 3.87867 8.63395 5.37441 6.72036 7.28825C4.79057 9.21804 3.31078 11.4376 2.24933 13.9465C1.15574 16.5358 0.60907 19.2537 0.60907 22.0683C0.60907 23.4514 0.737641 24.8342 1.02717 26.2657L7.47608 30.9131L8.48919 38.8418H19.0232L19.6503 39.2276C20.1972 39.6459 20.7922 39.8385 21.4999 39.8385C22.1916 39.8385 22.8028 39.6459 23.3332 39.2276L23.9121 38.8418H34.5589L35.5561 30.9131L41.9728 26.2657C42.2464 24.8342 42.3912 23.4511 42.3912 22.0683C42.3912 19.2537 41.8445 16.5358 40.7347 13.9465Z" fill="#CC2229"/>
<path fill-rule="evenodd" clip-rule="evenodd" d="M37.6467 16.3267C37.2284 14.5576 36.3279 13.0457 34.9286 11.8235L25.1346 28.694L33.8029 10.1992C32.645 8.67132 31.1814 7.62607 29.3321 7.03082L23.3332 28.0023L27.724 6.17842C26.3568 5.42246 24.9094 5.0365 23.3653 5.0365L22.3843 5.10078L21.516 27.809L20.5993 5.10078L19.6343 5.0365C18.0905 5.0365 16.6269 5.42246 15.2759 6.17842L19.6181 28.0023L13.6678 7.03107C11.8182 7.62632 10.3227 8.67157 9.19699 10.1995L17.9136 28.6943L8.07101 11.8238C6.67194 13.0459 5.77121 14.5579 5.35311 16.3269L16.3214 29.8038L5.03144 18.4655C4.51666 19.6236 4.25952 20.8299 4.25952 22.0682C4.25952 22.7596 4.34 23.4992 4.53286 24.2875L10.8694 28.9193L11.7058 35.1429H19.4093L20.5029 35.9791C20.8086 36.1882 21.1303 36.2849 21.5 36.3008C21.8539 36.2851 22.1917 36.1882 22.4651 35.9791L23.6229 35.1429H31.3585L32.1469 28.9193L38.467 24.2875C38.6439 23.4992 38.7406 22.7596 38.7406 22.0682C38.7406 20.8299 38.467 19.6236 37.9686 18.4655L26.7432 29.8033L37.6467 16.3267Z" fill="#F6D330"/>
</g>
<defs>
<clipPath id="clip0_1138_84">
<rect width="42.9464" height="39.6847" fill="white" transform="translate(0.0267944 0.657715)"/>
</clipPath>
</defs>
</svg>
