<svg width="44" height="40" viewBox="0 0 44 40" fill="none" xmlns="http://www.w3.org/2000/svg">
<g clip-path="url(#clip0_1138_1657)">
<path d="M39.8787 9.53579C40.6501 10.6867 41.3098 11.9087 41.8488 13.1851C41.8488 13.1853 41.8493 13.1846 41.8497 13.1848C42.4149 14.5015 42.8442 15.8724 43.1308 17.2763C43.4181 18.6889 43.5623 20.1269 43.5612 21.5685C43.56 22.2852 43.5227 23.0014 43.4495 23.7144C43.3751 24.4445 43.2684 25.1709 43.1298 25.8915L43.08 26.1521L36.6843 30.7843L35.6496 39.0121H24.6154L24.2142 39.2796C23.9053 39.5191 23.5576 39.7041 23.1864 39.8265H23.1839C22.8082 39.9502 22.4137 40.0095 22 40.0095C21.5777 40.0095 21.1837 39.9502 20.8083 39.8265H20.8056C20.4454 39.7082 20.1085 39.5303 19.7858 39.2901L19.3344 39.0121H8.40193L7.35079 30.7858L0.92175 26.1521L0.869978 25.8967C0.724392 25.1743 0.6158 24.4449 0.544625 23.7115C0.47443 22.9993 0.439137 22.2841 0.438873 21.5685C0.438873 20.1159 0.580449 18.6874 0.862863 17.2883C1.14809 15.8822 1.57406 14.5084 2.13434 13.1875C2.67303 11.908 3.3327 10.6828 4.10437 9.52867C4.8782 8.3737 5.76319 7.29723 6.7467 6.31465C7.72416 5.33774 8.79377 4.45761 9.94061 3.68655C11.095 2.91063 12.3205 2.24623 13.6007 1.70229C14.9492 1.12814 16.3198 0.69973 17.716 0.416088C19.1261 0.131023 20.5613 -0.0114336 22 -0.00912773C23.4484 -0.00912773 24.8799 0.133674 26.2922 0.420996C27.701 0.70839 29.0772 1.13768 30.3996 1.70229C31.6749 2.24377 32.8954 2.90609 34.0445 3.68017C35.1869 4.45086 36.2527 5.32951 37.2371 6.31465C37.2381 6.31514 37.2366 6.31661 37.2371 6.3171C38.2177 7.30382 39.1022 8.38157 39.8787 9.53579Z" fill="white"/>
<path fill-rule="evenodd" clip-rule="evenodd" d="M41.2347 13.4465C40.1733 10.9376 38.6775 8.71804 36.7639 6.78825C34.8498 4.87441 32.6305 3.37867 30.1376 2.31722C27.5326 1.20768 24.8144 0.660767 22.0001 0.660767C19.1696 0.660767 16.4679 1.20768 13.8624 2.31722C11.3695 3.37867 9.13395 4.87441 7.22036 6.78825C5.29057 8.71804 3.81078 10.9376 2.74933 13.4465C1.65574 16.0358 1.10907 18.7537 1.10907 21.5683C1.10907 22.9514 1.23764 24.3342 1.52717 25.7657L7.97608 30.4131L8.98919 38.3418H19.5232L20.1503 38.7276C20.6972 39.1459 21.2922 39.3385 21.9999 39.3385C22.6916 39.3385 23.3028 39.1459 23.8332 38.7276L24.4121 38.3418H35.0589L36.0561 30.4131L42.4728 25.7657C42.7464 24.3342 42.8912 22.9511 42.8912 21.5683C42.8912 18.7537 42.3445 16.0358 41.2347 13.4465Z" fill="#CC2229"/>
<path fill-rule="evenodd" clip-rule="evenodd" d="M38.1467 15.8267C37.7284 14.0576 36.8279 12.5457 35.4286 11.3235L25.6346 28.194L34.3029 9.69921C33.145 8.17132 31.6814 7.12607 29.8321 6.53082L23.8332 27.5023L28.224 5.67842C26.8568 4.92246 25.4094 4.5365 23.8653 4.5365L22.8843 4.60078L22.016 27.309L21.0993 4.60078L20.1343 4.5365C18.5905 4.5365 17.1269 4.92246 15.7759 5.67842L20.1181 27.5023L14.1678 6.53107C12.3182 7.12632 10.8227 8.17157 9.69699 9.69945L18.4136 28.1943L8.57101 11.3238C7.17194 12.5459 6.27121 14.0579 5.85311 15.8269L16.8214 29.3038L5.53144 17.9655C5.01666 19.1236 4.75952 20.3299 4.75952 21.5682C4.75952 22.2596 4.84 22.9992 5.03286 23.7875L11.3694 28.4193L12.2058 34.6429H19.9093L21.0029 35.4791C21.3086 35.6882 21.6303 35.7849 22 35.8008C22.3539 35.7851 22.6917 35.6882 22.9651 35.4791L24.1229 34.6429H31.8585L32.6469 28.4193L38.967 23.7875C39.1439 22.9992 39.2406 22.2596 39.2406 21.5682C39.2406 20.3299 38.967 19.1236 38.4686 17.9655L27.2432 29.3033L38.1467 15.8267Z" fill="#F6D330"/>
</g>
<defs>
<clipPath id="clip0_1138_1657">
<rect width="42.9464" height="39.6847" fill="white" transform="translate(0.526794 0.157715)"/>
</clipPath>
</defs>
</svg>
