<svg width="32" height="32" viewBox="0 0 32 32" fill="none" xmlns="http://www.w3.org/2000/svg">
<g clip-path="url(#clip0_840_9117)">
<path d="M8.66569 2.66646H23.3324C23.5394 2.66646 23.7435 2.71465 23.9286 2.80722C24.1138 2.89979 24.2748 3.0342 24.399 3.19979L27.999 7.99979V27.9998C27.999 28.3534 27.8586 28.6926 27.6085 28.9426C27.3585 29.1927 27.0193 29.3331 26.6657 29.3331H5.33236C4.97873 29.3331 4.6396 29.1927 4.38955 28.9426C4.1395 28.6926 3.99902 28.3534 3.99902 27.9998V7.99979L7.59902 3.19979C7.72322 3.0342 7.88427 2.89979 8.06941 2.80722C8.25455 2.71465 8.4587 2.66646 8.66569 2.66646ZM25.3324 10.6665H6.66569V26.6665H25.3324V10.6665ZM24.6657 7.99979L22.6657 5.33312H9.33236L7.33236 7.99979H24.6657ZM11.999 13.3331V15.9998C11.999 17.0607 12.4205 18.0781 13.1706 18.8282C13.9207 19.5784 14.9382 19.9998 15.999 19.9998C17.0599 19.9998 18.0773 19.5784 18.8275 18.8282C19.5776 18.0781 19.999 17.0607 19.999 15.9998V13.3331H22.6657V15.9998C22.6657 17.7679 21.9633 19.4636 20.7131 20.7138C19.4628 21.9641 17.7671 22.6665 15.999 22.6665C14.2309 22.6665 12.5352 21.9641 11.285 20.7138C10.0347 19.4636 9.33236 17.7679 9.33236 15.9998V13.3331H11.999Z" fill="white"/>
</g>
<defs>
<clipPath id="clip0_840_9117">
<rect width="32" height="32" fill="white" transform="translate(-0.000976562 -0.000213623)"/>
</clipPath>
</defs>
</svg>
