<svg width="22" height="9" viewBox="0 0 22 9" fill="none" xmlns="http://www.w3.org/2000/svg">
<path d="M3.57142 0.591553C5.21276 0.591553 6.64093 1.7586 6.64093 4.52968V4.54034C6.64093 7.13024 5.47388 8.66499 3.53945 8.66499C2.12726 8.66499 1.07212 7.82834 0.826988 6.65063L0.81633 6.59201H2.1699L2.18588 6.6453C2.38838 7.18353 2.86267 7.53524 3.53945 7.53524C4.75979 7.53524 5.2767 6.34154 5.33532 4.87074C5.33532 4.81212 5.34065 4.7535 5.34065 4.69488H5.23407C4.95163 5.30239 4.28018 5.84062 3.22504 5.84062C1.7489 5.84062 0.715079 4.76416 0.715079 3.30401V3.29336C0.715079 1.73196 1.90345 0.591553 3.57142 0.591553ZM3.56609 4.78548C4.43472 4.78548 5.10085 4.15665 5.10085 3.28803V3.27737C5.10085 2.39808 4.43472 1.71064 3.58208 1.71064C2.73477 1.71064 2.05799 2.38743 2.05799 3.2454V3.25605C2.05799 4.146 2.69214 4.78548 3.56609 4.78548ZM8.84202 3.49053C8.35708 3.49053 7.99471 3.1175 7.99471 2.64855C7.99471 2.17427 8.35708 1.80657 8.84202 1.80657C9.33229 1.80657 9.68933 2.17427 9.68933 2.64855C9.68933 3.1175 9.33229 3.49053 8.84202 3.49053ZM8.84202 7.44465C8.35708 7.44465 7.99471 7.07695 7.99471 6.60267C7.99471 6.12838 8.35708 5.76068 8.84202 5.76068C9.33229 5.76068 9.68933 6.12838 9.68933 6.60267C9.68933 7.07695 9.33229 7.44465 8.84202 7.44465ZM14.7734 8.47314V6.99701H11.0111V5.87259C12.0077 4.14067 13.1001 2.37144 14.1446 0.783397H16.0897V5.86193H17.1235V6.99701H16.0897V8.47314H14.7734ZM12.2901 5.89391H14.7947V1.88117H14.7148C13.9261 3.08553 13.0362 4.50837 12.2901 5.81397V5.89391ZM20.092 8.47314V2.13696H20.0014L18.0883 3.49053V2.19558L20.0973 0.783397H21.4668V8.47314H20.092Z" fill="black"/>
</svg>
